<?xml version="1.0" standalone="no"?>
<!DOCTYPE svg PUBLIC "-//W3C//DTD SVG 20010904//EN"
 "http://www.w3.org/TR/2001/REC-SVG-20010904/DTD/svg10.dtd">
<svg version="1.0" xmlns="http://www.w3.org/2000/svg"
 width="700.000000pt" height="700.000000pt" viewBox="0 0 700.000000 700.000000"
 preserveAspectRatio="xMidYMid meet">
<metadata>
Created by potrace 1.11, written by Peter Selinger 2001-2013
</metadata>
<g transform="translate(0.000000,700.000000) scale(0.100000,-0.100000)"
fill="#000000" stroke="none">
<path d="M6775 6981 c-221 -60 -527 -236 -835 -479 -116 -92 -254 -224 -695
-667 -302 -305 -563 -560 -580 -568 -70 -35 -166 -47 -246 -32 -13 3 -46 9
-74 15 -27 5 -61 11 -75 14 -14 2 -85 16 -159 31 -152 30 -143 29 -231 45 -36
7 -71 16 -77 19 -13 7 -11 9 95 130 92 103 192 234 198 259 12 44 -5 87 -59
143 -60 63 -111 91 -153 83 -57 -10 -303 -215 -536 -447 -54 -53 -72 -66 -90
-62 -13 3 -117 23 -233 46 -115 22 -298 58 -405 79 -107 22 -211 42 -230 45
-19 3 -64 12 -100 20 -114 24 -224 45 -265 51 -22 3 -42 7 -45 9 -3 2 -25 6
-50 10 -25 4 -47 8 -51 10 -3 2 -20 7 -37 10 -18 3 -45 7 -62 10 -16 3 -76 15
-132 26 -124 25 -105 21 -358 70 -262 51 -251 48 -280 54 -14 3 -47 11 -75 17
-27 6 -90 12 -140 12 -129 1 -173 -21 -321 -166 -128 -125 -141 -142 -124
-163 7 -8 148 -82 313 -166 166 -83 496 -249 732 -369 237 -120 628 -318 870
-440 242 -122 454 -232 470 -243 47 -32 475 -459 491 -489 17 -33 18 -72 3
-101 -10 -17 -95 -124 -119 -147 -3 -3 -34 -39 -70 -80 -36 -41 -67 -77 -70
-80 -3 -3 -50 -57 -104 -120 -55 -63 -104 -119 -110 -125 -6 -5 -67 -77 -136
-160 -69 -82 -127 -152 -130 -155 -3 -3 -39 -45 -80 -95 -41 -49 -82 -99 -92
-110 -9 -11 -83 -101 -164 -200 -299 -366 -303 -370 -400 -397 -79 -22 -115
-18 -454 47 -14 3 -47 9 -75 15 -27 6 -61 12 -75 15 -14 3 -59 11 -100 20 -41
8 -86 17 -100 19 -14 3 -140 28 -280 56 -140 28 -285 53 -321 57 -95 8 -149
-19 -261 -132 -49 -49 -88 -91 -88 -94 1 -20 77 -60 672 -356 l657 -326 -62
-92 c-80 -118 -113 -187 -90 -187 17 0 102 48 181 101 47 32 87 58 88 56 1 -1
124 -247 274 -547 149 -300 297 -597 329 -660 41 -81 64 -116 78 -118 24 -4
181 158 208 214 31 66 30 125 -9 319 -20 99 -39 191 -41 205 -2 14 -25 126
-49 250 -24 124 -61 311 -82 415 -63 322 -51 380 104 526 9 8 39 33 67 55 27
21 117 95 200 163 82 68 170 140 195 160 24 20 92 76 150 125 58 48 125 105
150 126 101 85 284 242 430 369 85 75 168 147 184 161 16 14 50 44 75 68 25
24 64 52 87 62 72 34 86 24 322 -210 116 -116 227 -230 247 -254 19 -24 88
-148 154 -277 65 -129 238 -472 386 -764 689 -1363 693 -1370 713 -1373 31 -5
253 223 288 295 41 84 41 175 -2 383 -19 91 -36 181 -40 200 -3 19 -7 43 -10
52 -6 19 -10 41 -25 123 -6 33 -21 114 -34 180 -14 66 -27 132 -30 148 -8 45
-15 78 -30 152 -8 39 -17 86 -20 105 -3 19 -8 42 -10 50 -2 8 -7 29 -10 45 -2
17 -7 41 -10 55 -2 14 -9 48 -15 75 -5 28 -12 66 -15 85 -3 19 -10 51 -15 70
-5 20 -12 53 -14 74 -3 21 -8 46 -10 55 -3 9 -8 32 -11 51 -3 19 -8 42 -10 50
-2 8 -7 31 -10 50 -3 19 -8 42 -10 50 -2 8 -6 26 -9 40 -8 48 -38 205 -43 225
-2 11 -6 31 -9 45 -3 14 -16 81 -30 150 l-24 124 42 44 c24 25 59 61 79 81 30
30 85 92 243 271 58 66 145 188 151 211 18 73 -117 219 -201 219 -39 0 -97
-42 -293 -210 -42 -35 -85 -73 -96 -83 -19 -17 -20 -17 -27 0 -4 10 -32 146
-63 303 -30 157 -58 296 -61 310 -17 78 1 190 42 257 9 15 263 273 564 573
564 562 657 664 826 910 141 205 260 430 305 576 13 40 22 99 23 141 1 61 -2
76 -20 93 -30 31 -111 35 -199 11z"/>
</g>
</svg>
